<svg xmlns="http://www.w3.org/2000/svg" viewBox="0 0 256 256" role="img" aria-labelledby="title desc">
  <title id="title">Research Records Icon</title>
  <desc id="desc">A dark notebook tile with a chemistry flask accent.</desc>
  <defs>
    <linearGradient id="bg" x1="0" y1="0" x2="1" y2="1">
      <stop offset="0%" stop-color="#0f172a"/>
      <stop offset="100%" stop-color="#1d4ed8"/>
    </linearGradient>
    <linearGradient id="glass" x1="0" y1="0" x2="0" y2="1">
      <stop offset="0%" stop-color="#bfdbfe"/>
      <stop offset="100%" stop-color="#60a5fa"/>
    </linearGradient>
  </defs>
  <rect x="12" y="12" width="232" height="232" rx="52" fill="url(#bg)"/>
  <rect x="58" y="48" width="104" height="160" rx="18" fill="#ffffff" opacity="0.95"/>
  <rect x="74" y="76" width="72" height="10" rx="5" fill="#dbeafe"/>
  <rect x="74" y="102" width="72" height="10" rx="5" fill="#dbeafe"/>
  <rect x="74" y="128" width="56" height="10" rx="5" fill="#dbeafe"/>
  <path d="M174 84h22v26l22 46a18 18 0 0 1-16 26h-34a18 18 0 0 1-16-26l22-46z" fill="url(#glass)"/>
  <path d="M176 84h18v18h-18z" fill="#e0f2fe"/>
  <path d="M170 162h50" stroke="#ffffff" stroke-width="8" stroke-linecap="round" opacity="0.85"/>
</svg>
